# xmcd
#
# Track frame offsets: 
#        182
#        7637
#        29642
#        47757
#        53940
#        72815
#        92847
#        96137
#        117582
#        134920
#        140442
#        160207
#        180697
#        185492
#        206425
#        225195
#        247777
#
# Disc length: 3519 seconds
#
# Revision: 7
# Processed by: cddbd v1.5.2PL0 Copyright (c) Steve Scherf et al.
# Submitted via: ExactAudioCopy v1.0b3
#
DISCID=e50dbd11
DTITLE=Nicole Wray - Make It Hot [CD1]
DYEAR=2000
DGENRE=R&B
TTITLE0=The Time Is Now (Ft. Missy Elliott)
TTITLE1=Seventeen
TTITLE2=In Da Street (Ft. Missy Elliott and Mocha)
TTITLE3=Traffic Jam
TTITLE4=Curiosity (Ft. Lil' Mo and Dent)
TTITLE5=Make It Hot (Ft. Missy Elliott and Mocha)
TTITLE6=Prelude (I Can't See)
TTITLE7=I Can't See
TTITLE8=Nervous (Ft. Lil' Mo)
TTITLE9=Pressure
TTITLE10=Boy You Should Listen
TTITLE11=Eyes Better Not Wander
TTITLE12=Radio DJ
TTITLE13=Silly Love Song
TTITLE14=Raise Your Frown
TTITLE15=Borrowed Time
TTITLE16=Testing Our Love (Suga)
EXTD=YEAR: 2000
EXTT0=
EXTT1=
EXTT2=
EXTT3=
EXTT4=
EXTT5=
EXTT6=
EXTT7=
EXTT8=
EXTT9=
EXTT10=
EXTT11=
EXTT12=
EXTT13=
EXTT14=
EXTT15=
EXTT16=
PLAYORDER=
